<?xml version="1.0" encoding="UTF-8" standalone="no"?>
<!DOCTYPE svg PUBLIC "-//W3C//DTD SVG 1.1//EN" "http://www.w3.org/Graphics/SVG/1.1/DTD/svg11.dtd">
<svg width="100%" height="100%" viewBox="0 0 116 140" version="1.1" xmlns="http://www.w3.org/2000/svg" xmlns:xlink="http://www.w3.org/1999/xlink" xml:space="preserve" xmlns:serif="http://www.serif.com/" style="fill-rule:evenodd;clip-rule:evenodd;stroke-linejoin:round;stroke-miterlimit:2;">
    <g transform="matrix(1,0,0,1,-31.6,-8.996)">
        <g transform="matrix(0.515785,0,0,0.518319,15.3012,4.3332)">
            <path d="M256.4,11.9C256.4,11.9 256.4,10.4 255.6,9.7C254.8,8.9 253.6,9 253.6,9L54.8,9C42,9 31.6,19.4 31.6,32.2L31.6,255.9C31.6,268.6 42,279.1 54.8,279.1L233.3,279.1C246,279.1 256.5,268.7 256.5,255.9L256.4,11.9Z" style="fill:rgb(32,64,99);"/>
        </g>
        <g transform="matrix(0.515785,0,0,0.518319,15.3012,4.3332)">
            <path d="M229.3,273.2L54.2,273.2C43.9,273.2 37.9,265.9 37.9,253.2L37.9,34.8C37.9,23.8 47.3,14.8 58.8,14.8L216.2,14.8C217.3,14.8 218.2,15.7 218.2,16.8C218.2,17.9 217.3,18.8 216.2,18.8L58.8,18.8C49.5,18.9 42,26 42,34.8L42,253.2C42,260.5 44.1,269.1 54.2,269.1L229.4,269.1C238.6,269.1 246.2,262 246.2,253.2L246.2,45.6C246.2,44.5 247.1,43.6 248.2,43.6C249.3,43.6 250.2,44.5 250.2,45.6L250.2,253.2C250.2,264.2 240.8,273.2 229.3,273.2Z" style="fill:rgb(241,102,36);fill-rule:nonzero;"/>
        </g>
        <g transform="matrix(0.515785,0,0,0.518319,15.3012,4.3332)">
            <path d="M89.2,67.2L89.2,71.2C89.2,76.1 86.6,78.9 81.6,78.9C76.6,78.9 74,76.1 74,71.2L74,55.4C74,50.5 76.6,47.7 81.6,47.7C86.6,47.7 89.2,50.5 89.2,55.4L89.2,58.4L84.4,58.4L84.4,55.1C84.4,52.9 83.4,52.1 81.8,52.1C80.2,52.1 79.2,52.9 79.2,55.1L79.2,71.6C79.2,73.8 80.2,74.6 81.8,74.6C83.4,74.6 84.4,73.8 84.4,71.6L84.4,67.2L89.2,67.2Z" style="fill:white;fill-rule:nonzero;"/>
            <path d="M109,78.6L103.9,78.6L103,73L96.8,73L95.9,78.5L91.2,78.5L96.4,48L103.8,48L109,78.6ZM97.4,68.9L102.3,68.9L99.9,53.5L97.4,68.9Z" style="fill:white;fill-rule:nonzero;"/>
            <path d="M116.1,56.5L116.1,78.6L111.5,78.6L111.5,48.1L117.9,48.1L123.1,66.3L123.1,48.1L127.6,48.1L127.6,78.6L122.4,78.6L116.1,56.5Z" style="fill:white;fill-rule:nonzero;"/>
            <path d="M148,78.6L142.9,78.6L142,73L135.8,73L134.9,78.5L130.2,78.5L135.4,48L142.8,48L148,78.6ZM136.4,68.9L141.3,68.9L138.9,53.5L136.4,68.9Z" style="fill:white;fill-rule:nonzero;"/>
            <path d="M150.7,48.1L158.7,48.1C163.8,48.1 166.3,50.8 166.3,55.6L166.3,71C166.3,75.9 163.8,78.5 158.7,78.5L150.7,78.5L150.7,48.1ZM155.7,52.4L155.7,74.2L158.6,74.2C160.2,74.2 161.2,73.4 161.2,71.2L161.2,55.4C161.2,53.2 160.2,52.4 158.6,52.4L155.7,52.4Z" style="fill:white;fill-rule:nonzero;"/>
            <rect x="169.8" y="48.1" width="5.1" height="30.5" style="fill:white;fill-rule:nonzero;"/>
            <path d="M195.2,78.6L190.1,78.6L189.2,73.1L183,73.1L182.1,78.6L177.4,78.6L182.6,48.1L190,48.1L195.2,78.6ZM183.6,68.9L188.5,68.9L186.1,53.5L183.6,68.9Z" style="fill:white;fill-rule:nonzero;"/>
            <path d="M202.4,56.5L202.4,78.6L197.8,78.6L197.8,48.1L204.2,48.1L209.4,66.3L209.4,48.1L213.9,48.1L213.9,78.6L208.7,78.6L202.4,56.5Z" style="fill:white;fill-rule:nonzero;"/>
            <path d="M92.2,133.9L98.1,96.8L110.2,96.8L110.2,149L102,149L102,111.5L96,149L87.8,149L81.3,112.1L81.3,149L73.7,149L73.7,96.8L85.8,96.8L92.2,133.9Z" style="fill:white;fill-rule:nonzero;"/>
            <path d="M125,118.8L136.9,118.8L136.9,126.3L125,126.3L125,141.6L140,141.6L140,149.1L116.3,149.1L116.3,96.8L140,96.8L140,104.3L125,104.3L125,118.8Z" style="fill:white;fill-rule:nonzero;"/>
            <path d="M152.8,111.2L152.8,149L145,149L145,96.8L155.9,96.8L164.8,128.1L164.8,96.8L172.6,96.8L172.6,149L163.7,149L152.8,111.2Z" style="fill:white;fill-rule:nonzero;"/>
            <path d="M176.9,104.7L176.9,96.8L185.3,96.8L185.3,103.9L181.5,112.2L178,112.2L180.3,104.7L176.9,104.7Z" style="fill:white;fill-rule:nonzero;"/>
            <path d="M201.1,96.2C209.6,96.2 213.9,101 213.9,109.3L213.9,110.9L205.7,110.9L205.7,108.7C205.7,105 204.1,103.5 201.3,103.5C198.5,103.5 197,104.9 197,108.7C197,119.4 214,121.5 214,136.4C214,144.8 209.6,149.5 201,149.5C192.5,149.5 188,144.7 188,136.4L188,133.2L196.2,133.2L196.2,136.9C196.2,140.6 197.9,142 200.7,142C203.5,142 205.2,140.7 205.2,136.9C205.2,126.2 188.2,124.1 188.2,109.2C188.3,101 192.6,96.2 201.1,96.2Z" style="fill:white;fill-rule:nonzero;"/>
            <path d="M81.1,198.8L74.1,198.8L74.1,156.7L81.1,156.7L81.1,174.7L89.1,174.7L89.1,156.7L96.2,156.7L96.2,198.8L89,198.8L89,180.8L81,180.8L81,198.8L81.1,198.8Z" style="fill:white;fill-rule:nonzero;"/>
            <path d="M108.3,174.4L117.9,174.4L117.9,180.4L108.3,180.4L108.3,192.7L120.4,192.7L120.4,198.7L101.3,198.7L101.3,156.6L120.4,156.6L120.4,162.6L108.3,162.6L108.3,174.4Z" style="fill:white;fill-rule:nonzero;"/>
            <path d="M147.4,198.8L140.3,198.8L139.1,191.2L130.5,191.2L129.3,198.8L122.9,198.8L130,156.7L140.3,156.7L147.4,198.8ZM131.4,185.4L138.2,185.4L134.8,164.1L131.4,185.4Z" style="fill:white;fill-rule:nonzero;"/>
            <path d="M150.6,156.7L157.6,156.7L157.6,192.8L169.1,192.8L169.1,198.8L150.6,198.8L150.6,156.7Z" style="fill:white;fill-rule:nonzero;"/>
            <path d="M167,156.7L188.7,156.7L188.7,162.7L181.4,162.7L181.4,198.8L174.4,198.8L174.4,162.7L167,162.7L167,156.7Z" style="fill:white;fill-rule:nonzero;"/>
            <path d="M198.7,198.8L191.7,198.8L191.7,156.7L198.7,156.7L198.7,174.7L206.7,174.7L206.7,156.7L213.8,156.7L213.8,198.8L206.7,198.8L206.7,180.8L198.7,180.8L198.7,198.8Z" style="fill:white;fill-rule:nonzero;"/>
            <path d="M77.9,228L83.4,228L83.4,231.7L77.9,231.7L77.9,242.4L73.6,242.4L73.6,216.4L84.9,216.4L84.9,220.1L77.9,220.1L77.9,228Z" style="fill:white;fill-rule:nonzero;"/>
            <path d="M86.6,222.7C86.6,218.5 88.9,216.2 93.1,216.2C97.3,216.2 99.6,218.6 99.6,222.7L99.6,236.2C99.6,240.4 97.3,242.7 93.1,242.7C88.9,242.7 86.6,240.3 86.6,236.2L86.6,222.7ZM90.9,236.4C90.9,238.3 91.8,239 93.1,239C94.5,239 95.3,238.3 95.3,236.4L95.3,222.4C95.3,220.5 94.4,219.8 93.1,219.8C91.7,219.8 90.9,220.5 90.9,222.4L90.9,236.4Z" style="fill:white;fill-rule:nonzero;"/>
            <path d="M106.4,216.4L106.4,236.4C106.4,238.3 107.3,238.9 108.6,238.9C110,238.9 110.8,238.2 110.8,236.4L110.8,216.4L114.8,216.4L114.8,236.2C114.8,240.4 112.6,242.7 108.4,242.7C104.2,242.7 102.1,240.3 102.1,236.2L102.1,216.4L106.4,216.4Z" style="fill:white;fill-rule:nonzero;"/>
            <path d="M121.5,223.6L121.5,242.4L117.7,242.4L117.7,216.4L123,216.4L127.4,232L127.4,216.4L131.2,216.4L131.2,242.4L126.8,242.4L121.5,223.6Z" style="fill:white;fill-rule:nonzero;"/>
            <path d="M134.3,216.4L141,216.4C145.3,216.4 147.3,218.7 147.3,222.8L147.3,236C147.3,240.2 145.2,242.4 141,242.4L134.3,242.4L134.3,216.4ZM138.5,220.1L138.5,238.7L140.9,238.7C142.3,238.7 143.1,238 143.1,236.2L143.1,222.7C143.1,220.8 142.3,220.2 140.9,220.2L138.5,220.2L138.5,220.1Z" style="fill:white;fill-rule:nonzero;"/>
            <path d="M163.8,242.4L159.5,242.4L158.8,237.7L153.6,237.7L152.9,242.4L149,242.4L153.3,216.4L159.5,216.4L163.8,242.4ZM154.1,234.2L158.2,234.2L156.1,221.1L154.1,234.2Z" style="fill:white;fill-rule:nonzero;"/>
            <path d="M163,216.4L176.3,216.4L176.3,220.1L171.8,220.1L171.8,242.4L167.5,242.4L167.5,220.1L163,220.1L163,216.4Z" style="fill:white;fill-rule:nonzero;"/>
            <rect x="178.1" y="216.4" width="4.3" height="26" style="fill:white;fill-rule:nonzero;"/>
            <path d="M185.1,222.7C185.1,218.5 187.4,216.2 191.6,216.2C195.8,216.2 198.1,218.6 198.1,222.7L198.1,236.2C198.1,240.4 195.8,242.7 191.6,242.7C187.4,242.7 185.1,240.3 185.1,236.2L185.1,222.7ZM189.4,236.4C189.4,238.3 190.3,239 191.6,239C192.9,239 193.8,238.3 193.8,236.4L193.8,222.4C193.8,220.5 192.9,219.8 191.6,219.8C190.3,219.8 189.4,220.5 189.4,222.4L189.4,236.4Z" style="fill:white;fill-rule:nonzero;"/>
            <path d="M204.6,223.6L204.6,242.4L200.8,242.4L200.8,216.4L206.1,216.4L210.5,232L210.5,216.4L214.3,216.4L214.3,242.4L209.9,242.4L204.6,223.6Z" style="fill:white;fill-rule:nonzero;"/>
        </g>
        <g transform="matrix(0.515785,0,0,0.518319,15.3012,4.3332)">
            <path d="M248.1,14.8L228.5,14.8C227.4,14.8 226.5,15.7 226.5,16.8C226.5,17.9 227.4,18.8 228.5,18.8L243.2,18.8L227.8,33.5C227,34.3 227,35.6 227.7,36.4C228.1,36.8 228.6,37 229.2,37C229.7,37 230.2,36.8 230.6,36.4L246.1,21.6L246.1,34.6C246.1,35.7 247,36.6 248.1,36.6C249.2,36.6 250.1,35.7 250.1,34.6L250.1,16.6C250.2,15.7 249.3,14.8 248.1,14.8Z" style="fill:rgb(135,214,248);fill-rule:nonzero;"/>
        </g>
        <g transform="matrix(0.515785,0,0,0.518319,15.3012,4.3332)">
            <path d="M215,88.8L73,88.8C72.2,88.8 71.6,88.2 71.6,87.4C71.6,86.6 72.2,86 73,86L215,86C215.8,86 216.4,86.6 216.4,87.4C216.4,88.2 215.8,88.8 215,88.8Z" style="fill:rgb(135,214,248);fill-rule:nonzero;"/>
        </g>
        <g transform="matrix(0.515785,0,0,0.518319,15.3012,4.3332)">
            <path d="M215,209.2L73,209.2C72.2,209.2 71.6,208.6 71.6,207.8C71.6,207 72.2,206.4 73,206.4L215,206.4C215.8,206.4 216.4,207 216.4,207.8C216.4,208.5 215.8,209.2 215,209.2Z" style="fill:rgb(135,214,248);fill-rule:nonzero;"/>
        </g>
    </g>
</svg>
